<mxfile host="app.diagrams.net" modified="2023-10-11T09:21:57.836Z" agent="Mozilla/5.0 (Windows NT 10.0; Win64; x64) AppleWebKit/537.36 (KHTML, like Gecko) Chrome/117.0.0.0 Safari/537.36" etag="wODVmBtoiV856G0a2pov" version="22.0.4" type="device">
  <diagram name="Page-1" id="64c3da0e-402f-94eb-ee01-a36477274f13">
    <mxGraphModel dx="1235" dy="1066" grid="0" gridSize="10" guides="1" tooltips="1" connect="1" arrows="1" fold="1" page="0" pageScale="1" pageWidth="1169" pageHeight="826" background="none" math="0" shadow="0">
      <root>
        <mxCell id="0" />
        <mxCell id="1" parent="0" />
        <mxCell id="2" value="&#xa;&#xa;&#xa;Sydney AirbnB Search&#xa;&#xa;" style="whiteSpace=wrap;rounded=1;shadow=1;fillColor=#10739E;strokeColor=none;fontColor=#FFFFFF;fontStyle=1;fontSize=24" parent="1" vertex="1">
          <mxGeometry x="470" width="340" height="60" as="geometry" />
        </mxCell>
        <mxCell id="3" value="1. Project Initialization" style="whiteSpace=wrap;rounded=1;fillColor=#F2931E;strokeColor=none;shadow=1;fontColor=#FFFFFF;fontStyle=1;fontSize=14" parent="1" vertex="1">
          <mxGeometry x="151" y="188.99999999999977" width="140" height="60" as="geometry" />
        </mxCell>
        <mxCell id="4" value="2. System Design" style="whiteSpace=wrap;rounded=1;fillColor=#F2931E;strokeColor=none;shadow=1;fontColor=#FFFFFF;fontStyle=1;fontSize=14" parent="1" vertex="1">
          <mxGeometry x="364" y="184.99999999999977" width="140" height="60" as="geometry" />
        </mxCell>
        <mxCell id="6" value="3. Development" style="whiteSpace=wrap;rounded=1;fillColor=#F2931E;strokeColor=none;shadow=1;fontColor=#FFFFFF;fontStyle=1;fontSize=14" parent="1" vertex="1">
          <mxGeometry x="570" y="196.99999999999977" width="140" height="60" as="geometry" />
        </mxCell>
        <mxCell id="7" value="4. Testing" style="whiteSpace=wrap;rounded=1;fillColor=#F2931E;strokeColor=none;shadow=1;fontColor=#FFFFFF;fontStyle=1;fontSize=14" parent="1" vertex="1">
          <mxGeometry x="767" y="191.24999999999977" width="140" height="60" as="geometry" />
        </mxCell>
        <mxCell id="8" value="5. Project Closure" style="whiteSpace=wrap;rounded=1;fillColor=#F2931E;strokeColor=none;shadow=1;fontColor=#FFFFFF;fontStyle=1;fontSize=14" parent="1" vertex="1">
          <mxGeometry x="965" y="191.99999999999977" width="140" height="60" as="geometry" />
        </mxCell>
        <mxCell id="23" value="1.1 Group meeting" style="whiteSpace=wrap;rounded=1;fillColor=#999999;strokeColor=none;shadow=1;fontColor=#FFFFFF;fontStyle=0;fontSize=14;align=left;" parent="1" vertex="1">
          <mxGeometry x="160.99999999999994" y="282.0000000000001" width="120" height="60" as="geometry" />
        </mxCell>
        <mxCell id="24" value="1.2 Research he Airbnb platform and its data availability&#xa; " style="whiteSpace=wrap;rounded=1;fillColor=#999999;strokeColor=none;shadow=1;fontColor=#FFFFFF;fontStyle=0;fontSize=14;align=left;" parent="1" vertex="1">
          <mxGeometry x="163" y="361" width="140" height="74" as="geometry" />
        </mxCell>
        <mxCell id="25" value="1.5 Allocating roles" style="whiteSpace=wrap;rounded=1;fillColor=#999999;strokeColor=none;shadow=1;fontColor=#FFFFFF;fontStyle=0;fontSize=14;align=left;" parent="1" vertex="1">
          <mxGeometry x="161.00000000000006" y="591.0000000000001" width="120" height="60" as="geometry" />
        </mxCell>
        <mxCell id="26" value="1.3 Gathering the requirement" style="whiteSpace=wrap;rounded=1;fillColor=#999999;strokeColor=none;shadow=1;fontColor=#FFFFFF;fontStyle=0;fontSize=14;align=left;" parent="1" vertex="1">
          <mxGeometry x="163.00000000000023" y="448.0000000000001" width="120" height="60" as="geometry" />
        </mxCell>
        <mxCell id="27" value="1.4 Define tasks" style="whiteSpace=wrap;rounded=1;fillColor=#999999;strokeColor=none;shadow=1;fontColor=#FFFFFF;fontStyle=0;fontSize=14;align=left;" parent="1" vertex="1">
          <mxGeometry x="163.00000000000034" y="519.0000000000001" width="120" height="60" as="geometry" />
        </mxCell>
        <mxCell id="45" value="2.1 Design system structure" style="whiteSpace=wrap;rounded=1;fillColor=#999999;strokeColor=none;shadow=1;fontColor=#FFFFFF;fontStyle=0;fontSize=14;align=left;" parent="1" vertex="1">
          <mxGeometry x="373.9999999999998" y="291.0000000000001" width="120" height="60" as="geometry" />
        </mxCell>
        <mxCell id="46" value="2.2 Design UI" style="whiteSpace=wrap;rounded=1;fillColor=#999999;strokeColor=none;shadow=1;fontColor=#FFFFFF;fontStyle=0;fontSize=14;align=left;" parent="1" vertex="1">
          <mxGeometry x="373.9999999999999" y="371.0000000000001" width="120" height="60" as="geometry" />
        </mxCell>
        <mxCell id="47" value="2.3 Create use case diagram" style="whiteSpace=wrap;rounded=1;fillColor=#999999;strokeColor=none;shadow=1;fontColor=#FFFFFF;fontStyle=0;fontSize=14;align=left;" parent="1" vertex="1">
          <mxGeometry x="373.9999999999998" y="451.0000000000001" width="120" height="60" as="geometry" />
        </mxCell>
        <mxCell id="135" value="3.1 Code for the system sturcture" style="whiteSpace=wrap;rounded=1;fillColor=#999999;strokeColor=none;shadow=1;fontColor=#FFFFFF;fontStyle=0;fontSize=14;align=left;" parent="1" vertex="1">
          <mxGeometry x="579.9999999999998" y="303.0000000000001" width="120" height="60" as="geometry" />
        </mxCell>
        <mxCell id="136" value="3.2 Code for the UI" style="whiteSpace=wrap;rounded=1;fillColor=#999999;strokeColor=none;shadow=1;fontColor=#FFFFFF;fontStyle=0;fontSize=14;align=left;" parent="1" vertex="1">
          <mxGeometry x="579.9999999999999" y="383.0000000000001" width="120" height="60" as="geometry" />
        </mxCell>
        <mxCell id="137" value="3.3 Create a use case diagram" style="whiteSpace=wrap;rounded=1;fillColor=#999999;strokeColor=none;shadow=1;fontColor=#FFFFFF;fontStyle=0;fontSize=14;align=left;" parent="1" vertex="1">
          <mxGeometry x="579.9999999999998" y="463.0000000000001" width="120" height="60" as="geometry" />
        </mxCell>
        <mxCell id="145" value="" style="edgeStyle=elbowEdgeStyle;elbow=horizontal;rounded=0;fontColor=#000000;endArrow=none;endFill=0;strokeWidth=8;strokeColor=#23445D;exitX=0;exitY=0.5;exitDx=0;exitDy=0;" parent="1" source="6" target="135" edge="1">
          <mxGeometry width="100" height="100" relative="1" as="geometry">
            <mxPoint x="579.9999999999998" y="300" as="sourcePoint" />
            <mxPoint x="569.9999999999995" y="400" as="targetPoint" />
            <Array as="points">
              <mxPoint x="544" y="280" />
            </Array>
          </mxGeometry>
        </mxCell>
        <mxCell id="146" value="" style="edgeStyle=elbowEdgeStyle;elbow=horizontal;rounded=0;fontColor=#000000;endArrow=none;endFill=0;strokeWidth=8;strokeColor=#23445D;exitX=0;exitY=0.5;exitDx=0;exitDy=0;" parent="1" source="6" target="136" edge="1">
          <mxGeometry width="100" height="100" relative="1" as="geometry">
            <mxPoint x="579.9999999999998" y="300" as="sourcePoint" />
            <mxPoint x="569.9999999999998" y="480" as="targetPoint" />
            <Array as="points">
              <mxPoint x="545" y="327" />
            </Array>
          </mxGeometry>
        </mxCell>
        <mxCell id="149" value="" style="edgeStyle=elbowEdgeStyle;elbow=horizontal;rounded=0;fontColor=#000000;endArrow=none;endFill=0;strokeWidth=8;strokeColor=#23445D;exitX=0;exitY=0.5;exitDx=0;exitDy=0;" parent="1" source="6" target="137" edge="1">
          <mxGeometry width="100" height="100" relative="1" as="geometry">
            <mxPoint x="579.9999999999998" y="300" as="sourcePoint" />
            <mxPoint x="569.9999999999998" y="560" as="targetPoint" />
            <Array as="points">
              <mxPoint x="544" y="360" />
            </Array>
          </mxGeometry>
        </mxCell>
        <mxCell id="157" value="4.1 Testing plan" style="whiteSpace=wrap;rounded=1;fillColor=#999999;strokeColor=none;shadow=1;fontColor=#FFFFFF;fontStyle=0;fontSize=14;align=left;" parent="1" vertex="1">
          <mxGeometry x="782.9999999999998" y="293.7500000000002" width="120" height="60" as="geometry" />
        </mxCell>
        <mxCell id="158" value="4.2 Running Unit test" style="whiteSpace=wrap;rounded=1;fillColor=#999999;strokeColor=none;shadow=1;fontColor=#FFFFFF;fontStyle=0;fontSize=14;align=left;" parent="1" vertex="1">
          <mxGeometry x="783" y="376.7500000000002" width="120" height="60" as="geometry" />
        </mxCell>
        <mxCell id="159" value="4.3 Fixing bug" style="whiteSpace=wrap;rounded=1;fillColor=#999999;strokeColor=none;shadow=1;fontColor=#FFFFFF;fontStyle=0;fontSize=14;align=left;" parent="1" vertex="1">
          <mxGeometry x="782.9999999999998" y="463.7500000000002" width="120" height="60" as="geometry" />
        </mxCell>
        <mxCell id="160" value="4.4 Generate coverage report" style="whiteSpace=wrap;rounded=1;fillColor=#999999;strokeColor=none;shadow=1;fontColor=#FFFFFF;fontStyle=0;fontSize=14;align=left;" parent="1" vertex="1">
          <mxGeometry x="783" y="543.75" width="120" height="67" as="geometry" />
        </mxCell>
        <mxCell id="167" value="" style="edgeStyle=elbowEdgeStyle;elbow=horizontal;rounded=0;fontColor=#000000;endArrow=none;endFill=0;strokeWidth=8;strokeColor=#23445D;exitX=0;exitY=0.5;exitDx=0;exitDy=0;entryX=0;entryY=0.5;entryDx=0;entryDy=0;" parent="1" source="7" target="157" edge="1">
          <mxGeometry width="100" height="100" relative="1" as="geometry">
            <mxPoint x="791.9999999999998" y="268.25" as="sourcePoint" />
            <mxPoint x="791.9999999999998" y="368.25" as="targetPoint" />
            <Array as="points">
              <mxPoint x="742" y="308.25" />
              <mxPoint x="772" y="318.2500000000001" />
            </Array>
          </mxGeometry>
        </mxCell>
        <mxCell id="179" value="5.1 Executive summary" style="whiteSpace=wrap;rounded=1;fillColor=#999999;strokeColor=none;shadow=1;fontColor=#FFFFFF;fontStyle=0;fontSize=14;align=left;" parent="1" vertex="1">
          <mxGeometry x="970.9999999999998" y="298.4999999999999" width="120" height="60" as="geometry" />
        </mxCell>
        <mxCell id="180" value="5.2 End of project" style="whiteSpace=wrap;rounded=1;fillColor=#999999;strokeColor=none;shadow=1;fontColor=#FFFFFF;fontStyle=0;fontSize=14;align=left;" parent="1" vertex="1">
          <mxGeometry x="971" y="390.9999999999999" width="120" height="60" as="geometry" />
        </mxCell>
        <mxCell id="189" value="" style="edgeStyle=elbowEdgeStyle;elbow=horizontal;rounded=0;fontColor=#000000;endArrow=none;endFill=0;strokeWidth=8;strokeColor=#23445D;exitX=0;exitY=0.5;exitDx=0;exitDy=0;entryX=0;entryY=0.5;entryDx=0;entryDy=0;" parent="1" source="8" target="179" edge="1">
          <mxGeometry width="100" height="100" relative="1" as="geometry">
            <mxPoint x="1005" y="223" as="sourcePoint" />
            <mxPoint x="1005" y="323" as="targetPoint" />
            <Array as="points">
              <mxPoint x="930" y="284" />
            </Array>
          </mxGeometry>
        </mxCell>
        <mxCell id="229" value="" style="edgeStyle=elbowEdgeStyle;elbow=vertical;rounded=0;fontColor=#000000;endArrow=none;endFill=0;strokeWidth=8;strokeColor=#23445D;" parent="1" source="2" target="3" edge="1">
          <mxGeometry width="100" height="100" relative="1" as="geometry">
            <mxPoint x="210" y="130" as="sourcePoint" />
            <mxPoint x="310" y="30" as="targetPoint" />
            <Array as="points">
              <mxPoint x="410" y="110" />
            </Array>
          </mxGeometry>
        </mxCell>
        <mxCell id="230" value="" style="edgeStyle=elbowEdgeStyle;elbow=vertical;rounded=0;fontColor=#000000;endArrow=none;endFill=0;strokeWidth=8;strokeColor=#23445D;entryX=0.5;entryY=0;entryDx=0;entryDy=0;" parent="1" source="2" target="4" edge="1">
          <mxGeometry width="100" height="100" relative="1" as="geometry">
            <mxPoint x="220" y="140" as="sourcePoint" />
            <mxPoint x="320" y="40" as="targetPoint" />
            <Array as="points">
              <mxPoint x="400" y="110" />
            </Array>
          </mxGeometry>
        </mxCell>
        <mxCell id="231" value="" style="edgeStyle=elbowEdgeStyle;elbow=vertical;rounded=0;fontColor=#000000;endArrow=none;endFill=0;strokeWidth=8;strokeColor=#23445D;" parent="1" source="2" target="6" edge="1">
          <mxGeometry width="100" height="100" relative="1" as="geometry">
            <mxPoint x="230" y="150" as="sourcePoint" />
            <mxPoint x="330" y="50" as="targetPoint" />
          </mxGeometry>
        </mxCell>
        <mxCell id="232" value="" style="edgeStyle=elbowEdgeStyle;elbow=vertical;rounded=0;fontColor=#000000;endArrow=none;endFill=0;strokeWidth=8;strokeColor=#23445D;entryX=0.5;entryY=0;entryDx=0;entryDy=0;" parent="1" source="2" target="7" edge="1">
          <mxGeometry width="100" height="100" relative="1" as="geometry">
            <mxPoint x="240" y="160" as="sourcePoint" />
            <mxPoint x="340" y="60" as="targetPoint" />
            <Array as="points">
              <mxPoint x="830" y="110" />
            </Array>
          </mxGeometry>
        </mxCell>
        <mxCell id="233" value="" style="edgeStyle=elbowEdgeStyle;elbow=vertical;rounded=0;fontColor=#000000;endArrow=none;endFill=0;strokeWidth=8;strokeColor=#23445D;" parent="1" source="2" target="8" edge="1">
          <mxGeometry width="100" height="100" relative="1" as="geometry">
            <mxPoint x="250" y="170" as="sourcePoint" />
            <mxPoint x="350" y="70" as="targetPoint" />
            <Array as="points">
              <mxPoint x="900" y="110" />
            </Array>
          </mxGeometry>
        </mxCell>
        <mxCell id="DuSQKSkMRzt6rXB25hDw-238" value="" style="edgeStyle=elbowEdgeStyle;elbow=vertical;rounded=0;fontColor=#000000;endArrow=none;endFill=0;strokeWidth=8;strokeColor=#23445D;exitX=0;exitY=0.5;exitDx=0;exitDy=0;entryX=0;entryY=0.5;entryDx=0;entryDy=0;" parent="1" source="3" target="23" edge="1">
          <mxGeometry width="100" height="100" relative="1" as="geometry">
            <mxPoint x="60" y="247" as="sourcePoint" />
            <mxPoint y="280" as="targetPoint" />
            <Array as="points">
              <mxPoint x="105" y="271" />
            </Array>
          </mxGeometry>
        </mxCell>
        <mxCell id="DuSQKSkMRzt6rXB25hDw-239" value="1.6 Create WBS" style="whiteSpace=wrap;rounded=1;fillColor=#999999;strokeColor=none;shadow=1;fontColor=#FFFFFF;fontStyle=0;fontSize=14;align=left;" parent="1" vertex="1">
          <mxGeometry x="163" y="664.0000000000001" width="120" height="60" as="geometry" />
        </mxCell>
        <mxCell id="DuSQKSkMRzt6rXB25hDw-240" value="1.7 Report to client" style="whiteSpace=wrap;rounded=1;fillColor=#999999;strokeColor=none;shadow=1;fontColor=#FFFFFF;fontStyle=0;fontSize=14;align=left;" parent="1" vertex="1">
          <mxGeometry x="163" y="742.0000000000001" width="120" height="60" as="geometry" />
        </mxCell>
        <mxCell id="DuSQKSkMRzt6rXB25hDw-241" value="" style="edgeStyle=elbowEdgeStyle;elbow=vertical;rounded=0;fontColor=#000000;endArrow=none;endFill=0;strokeWidth=8;strokeColor=#23445D;exitX=0;exitY=0.5;exitDx=0;exitDy=0;entryX=0;entryY=0.5;entryDx=0;entryDy=0;" parent="1" source="3" target="24" edge="1">
          <mxGeometry width="100" height="100" relative="1" as="geometry">
            <mxPoint x="-30" y="300" as="sourcePoint" />
            <mxPoint x="-20" y="430" as="targetPoint" />
            <Array as="points">
              <mxPoint x="105" y="307" />
            </Array>
          </mxGeometry>
        </mxCell>
        <mxCell id="DuSQKSkMRzt6rXB25hDw-242" value="" style="edgeStyle=elbowEdgeStyle;elbow=vertical;rounded=0;fontColor=#000000;endArrow=none;endFill=0;strokeWidth=8;strokeColor=#23445D;exitX=0;exitY=0.5;exitDx=0;exitDy=0;entryX=0;entryY=0.5;entryDx=0;entryDy=0;" parent="1" source="3" target="26" edge="1">
          <mxGeometry width="100" height="100" relative="1" as="geometry">
            <mxPoint x="-20" y="417" as="sourcePoint" />
            <mxPoint x="-10" y="547" as="targetPoint" />
            <Array as="points">
              <mxPoint x="105" y="353" />
            </Array>
          </mxGeometry>
        </mxCell>
        <mxCell id="DuSQKSkMRzt6rXB25hDw-243" value="" style="edgeStyle=elbowEdgeStyle;elbow=vertical;rounded=0;fontColor=#000000;endArrow=none;endFill=0;strokeWidth=8;strokeColor=#23445D;entryX=0;entryY=0.5;entryDx=0;entryDy=0;exitX=0;exitY=0.5;exitDx=0;exitDy=0;" parent="1" source="3" target="DuSQKSkMRzt6rXB25hDw-239" edge="1">
          <mxGeometry width="100" height="100" relative="1" as="geometry">
            <mxPoint x="-80" y="787" as="sourcePoint" />
            <mxPoint y="877" as="targetPoint" />
            <Array as="points">
              <mxPoint x="104" y="460" />
              <mxPoint x="-50" y="747" />
            </Array>
          </mxGeometry>
        </mxCell>
        <mxCell id="DuSQKSkMRzt6rXB25hDw-244" value="" style="edgeStyle=elbowEdgeStyle;elbow=vertical;rounded=0;fontColor=#000000;endArrow=none;endFill=0;strokeWidth=8;strokeColor=#23445D;exitX=0;exitY=0.5;exitDx=0;exitDy=0;entryX=0;entryY=0.5;entryDx=0;entryDy=0;" parent="1" source="3" target="DuSQKSkMRzt6rXB25hDw-240" edge="1">
          <mxGeometry width="100" height="100" relative="1" as="geometry">
            <mxPoint y="827" as="sourcePoint" />
            <mxPoint x="10" y="957" as="targetPoint" />
            <Array as="points">
              <mxPoint x="104" y="494" />
            </Array>
          </mxGeometry>
        </mxCell>
        <mxCell id="DuSQKSkMRzt6rXB25hDw-245" value="" style="edgeStyle=elbowEdgeStyle;elbow=vertical;rounded=0;fontColor=#000000;endArrow=none;endFill=0;strokeWidth=8;strokeColor=#23445D;exitX=0;exitY=0.5;exitDx=0;exitDy=0;entryX=0;entryY=0.5;entryDx=0;entryDy=0;" parent="1" source="3" target="25" edge="1">
          <mxGeometry width="100" height="100" relative="1" as="geometry">
            <mxPoint x="-50" y="577" as="sourcePoint" />
            <mxPoint x="-40" y="707" as="targetPoint" />
            <Array as="points">
              <mxPoint x="104" y="425" />
              <mxPoint x="-90" y="577" />
            </Array>
          </mxGeometry>
        </mxCell>
        <mxCell id="DuSQKSkMRzt6rXB25hDw-246" value="" style="edgeStyle=elbowEdgeStyle;elbow=vertical;rounded=0;fontColor=#000000;endArrow=none;endFill=0;strokeWidth=8;strokeColor=#23445D;exitX=0;exitY=0.5;exitDx=0;exitDy=0;entryX=0;entryY=0.5;entryDx=0;entryDy=0;" parent="1" source="3" target="27" edge="1">
          <mxGeometry width="100" height="100" relative="1" as="geometry">
            <mxPoint x="-10" y="267" as="sourcePoint" />
            <mxPoint y="397" as="targetPoint" />
            <Array as="points">
              <mxPoint x="104" y="382" />
            </Array>
          </mxGeometry>
        </mxCell>
        <mxCell id="DuSQKSkMRzt6rXB25hDw-248" value="" style="edgeStyle=elbowEdgeStyle;elbow=horizontal;rounded=0;fontColor=#000000;endArrow=none;endFill=0;strokeWidth=8;strokeColor=#23445D;exitX=0;exitY=0.5;exitDx=0;exitDy=0;entryX=0;entryY=0.5;entryDx=0;entryDy=0;" parent="1" source="4" target="45" edge="1">
          <mxGeometry width="100" height="100" relative="1" as="geometry">
            <mxPoint x="169.99999999999977" y="200" as="sourcePoint" />
            <mxPoint x="170" y="300" as="targetPoint" />
            <Array as="points">
              <mxPoint x="319" y="260" />
            </Array>
          </mxGeometry>
        </mxCell>
        <mxCell id="DuSQKSkMRzt6rXB25hDw-249" value="" style="edgeStyle=elbowEdgeStyle;elbow=horizontal;rounded=0;fontColor=#000000;endArrow=none;endFill=0;strokeWidth=8;strokeColor=#23445D;exitX=0;exitY=0.5;exitDx=0;exitDy=0;entryX=0;entryY=0.5;entryDx=0;entryDy=0;" parent="1" source="4" target="46" edge="1">
          <mxGeometry width="100" height="100" relative="1" as="geometry">
            <mxPoint x="149.99999999999977" y="380" as="sourcePoint" />
            <mxPoint x="150" y="480" as="targetPoint" />
            <Array as="points">
              <mxPoint x="319" y="314" />
            </Array>
          </mxGeometry>
        </mxCell>
        <mxCell id="DuSQKSkMRzt6rXB25hDw-250" value="" style="edgeStyle=elbowEdgeStyle;elbow=horizontal;rounded=0;fontColor=#000000;endArrow=none;endFill=0;strokeWidth=8;strokeColor=#23445D;exitX=0;exitY=0.5;exitDx=0;exitDy=0;entryX=0;entryY=0.5;entryDx=0;entryDy=0;" parent="1" source="4" target="47" edge="1">
          <mxGeometry width="100" height="100" relative="1" as="geometry">
            <mxPoint x="149.99999999999977" y="430" as="sourcePoint" />
            <mxPoint x="150" y="530" as="targetPoint" />
            <Array as="points">
              <mxPoint x="319" y="341" />
            </Array>
          </mxGeometry>
        </mxCell>
        <mxCell id="DuSQKSkMRzt6rXB25hDw-252" value="" style="edgeStyle=elbowEdgeStyle;elbow=horizontal;rounded=0;fontColor=#000000;endArrow=none;endFill=0;strokeWidth=8;strokeColor=#23445D;exitX=0;exitY=0.5;exitDx=0;exitDy=0;entryX=0;entryY=0.5;entryDx=0;entryDy=0;" parent="1" source="7" target="160" edge="1">
          <mxGeometry width="100" height="100" relative="1" as="geometry">
            <mxPoint x="842" y="555.25" as="sourcePoint" />
            <mxPoint x="852" y="688.25" as="targetPoint" />
            <Array as="points">
              <mxPoint x="742" y="548.25" />
              <mxPoint x="772" y="378.25" />
            </Array>
          </mxGeometry>
        </mxCell>
        <mxCell id="DuSQKSkMRzt6rXB25hDw-253" value="" style="edgeStyle=elbowEdgeStyle;elbow=horizontal;rounded=0;fontColor=#000000;endArrow=none;endFill=0;strokeWidth=8;strokeColor=#23445D;entryX=0;entryY=0.5;entryDx=0;entryDy=0;exitX=0;exitY=0.5;exitDx=0;exitDy=0;" parent="1" source="7" target="158" edge="1">
          <mxGeometry width="100" height="100" relative="1" as="geometry">
            <mxPoint x="892" y="258.25" as="sourcePoint" />
            <mxPoint x="942" y="341.25" as="targetPoint" />
            <Array as="points">
              <mxPoint x="742" y="298.25" />
              <mxPoint x="772" y="298.25" />
            </Array>
          </mxGeometry>
        </mxCell>
        <mxCell id="DuSQKSkMRzt6rXB25hDw-254" value="" style="edgeStyle=elbowEdgeStyle;elbow=horizontal;rounded=0;fontColor=#000000;endArrow=none;endFill=0;strokeWidth=8;strokeColor=#23445D;exitX=0;exitY=0.5;exitDx=0;exitDy=0;entryX=0;entryY=0.5;entryDx=0;entryDy=0;" parent="1" source="7" target="159" edge="1">
          <mxGeometry width="100" height="100" relative="1" as="geometry">
            <mxPoint x="1062" y="688.25" as="sourcePoint" />
            <mxPoint x="872" y="488.25" as="targetPoint" />
            <Array as="points">
              <mxPoint x="742" y="268.25" />
              <mxPoint x="772" y="358.25" />
            </Array>
          </mxGeometry>
        </mxCell>
        <mxCell id="DuSQKSkMRzt6rXB25hDw-256" value="" style="edgeStyle=elbowEdgeStyle;elbow=horizontal;rounded=0;fontColor=#000000;endArrow=none;endFill=0;strokeWidth=8;strokeColor=#23445D;exitX=0;exitY=0.5;exitDx=0;exitDy=0;entryX=0;entryY=0.5;entryDx=0;entryDy=0;" parent="1" source="8" target="180" edge="1">
          <mxGeometry width="100" height="100" relative="1" as="geometry">
            <mxPoint x="995" y="389" as="sourcePoint" />
            <mxPoint x="995" y="489" as="targetPoint" />
            <Array as="points">
              <mxPoint x="929" y="336" />
            </Array>
          </mxGeometry>
        </mxCell>
        <mxCell id="YaHTfV_d8kSWd2XyOXw0-234" value="4.5 Modified original code" style="whiteSpace=wrap;rounded=1;fillColor=#999999;strokeColor=none;shadow=1;fontColor=#FFFFFF;fontStyle=0;fontSize=14;align=left;" vertex="1" parent="1">
          <mxGeometry x="783" y="631" width="120" height="67" as="geometry" />
        </mxCell>
        <mxCell id="YaHTfV_d8kSWd2XyOXw0-235" value="4.6 Requirement acceptance test" style="whiteSpace=wrap;rounded=1;fillColor=#999999;strokeColor=none;shadow=1;fontColor=#FFFFFF;fontStyle=0;fontSize=14;align=left;" vertex="1" parent="1">
          <mxGeometry x="783" y="718" width="120" height="67" as="geometry" />
        </mxCell>
        <mxCell id="YaHTfV_d8kSWd2XyOXw0-246" value="" style="edgeStyle=elbowEdgeStyle;elbow=horizontal;rounded=0;fontColor=#000000;endArrow=none;endFill=0;strokeWidth=8;strokeColor=#23445D;" edge="1" parent="1">
          <mxGeometry width="100" height="100" relative="1" as="geometry">
            <mxPoint x="763" y="221" as="sourcePoint" />
            <mxPoint x="783" y="663.999921875" as="targetPoint" />
            <Array as="points">
              <mxPoint x="742" y="442" />
            </Array>
          </mxGeometry>
        </mxCell>
        <mxCell id="YaHTfV_d8kSWd2XyOXw0-247" value="" style="edgeStyle=elbowEdgeStyle;elbow=horizontal;rounded=0;fontColor=#000000;endArrow=none;endFill=0;strokeWidth=8;strokeColor=#23445D;exitX=0;exitY=0.5;exitDx=0;exitDy=0;entryX=0.001;entryY=0.54;entryDx=0;entryDy=0;entryPerimeter=0;" edge="1" parent="1" target="YaHTfV_d8kSWd2XyOXw0-235">
          <mxGeometry width="100" height="100" relative="1" as="geometry">
            <mxPoint x="767" y="220" as="sourcePoint" />
            <mxPoint x="760" y="753.5332845052084" as="targetPoint" />
            <Array as="points">
              <mxPoint x="742" y="319" />
            </Array>
          </mxGeometry>
        </mxCell>
      </root>
    </mxGraphModel>
  </diagram>
</mxfile>
